<svg xmlns="http://www.w3.org/2000/svg" viewBox="0 0 1200 900"><defs><linearGradient id="bg" x1="0" y1="0" x2="1" y2="1"><stop stop-color="#f8f4ec"/><stop offset="1" stop-color="#dfeaf4"/></linearGradient></defs><rect width="1200" height="900" fill="url(#bg)"/><rect x="110" y="110" width="980" height="680" rx="36" fill="#071b32"/><rect x="165" y="175" width="870" height="510" rx="24" fill="#fff"/><g fill="#eaf1f6"><rect x="210" y="235" width="220" height="100" rx="18"/><rect x="465" y="235" width="220" height="100" rx="18"/><rect x="720" y="235" width="220" height="100" rx="18"/></g><g fill="#d6ad63"><circle cx="255" cy="285" r="20"/><circle cx="510" cy="285" r="20"/><circle cx="765" cy="285" r="20"/></g><g fill="#a8b6c5"><rect x="220" y="390" width="710" height="24" rx="12"/><rect x="220" y="445" width="600" height="24" rx="12"/><rect x="220" y="500" width="660" height="24" rx="12"/><rect x="220" y="555" width="520" height="24" rx="12"/></g><g stroke="#d6ad63" stroke-width="12" fill="none"><circle cx="925" cy="520" r="65"/><path d="M895 520l22 22 40-50"/></g><rect x="460" y="710" width="280" height="28" rx="14" fill="#d6ad63"/></svg>